<svg width="68" height="15" viewBox="0 0 68 15" fill="none" xmlns="http://www.w3.org/2000/svg">
<path d="M4.656 14.6C4.53867 14.6 4.44267 14.5627 4.368 14.488C4.29333 14.4133 4.256 14.3173 4.256 14.2V13.096C3.43467 12.9893 2.74667 12.7813 2.192 12.472C1.648 12.1627 1.23733 11.7893 0.96 11.352C0.682667 10.904 0.533333 10.4347 0.512 9.944C0.512 9.85867 0.544 9.784 0.608 9.72C0.682667 9.64533 0.768 9.608 0.864 9.608H2.88C3.02933 9.608 3.14133 9.63467 3.216 9.688C3.29067 9.74133 3.36533 9.81067 3.44 9.896C3.52533 10.056 3.64267 10.2107 3.792 10.36C3.952 10.5093 4.15467 10.632 4.4 10.728C4.656 10.8133 4.97067 10.856 5.344 10.856C5.96267 10.856 6.42667 10.76 6.736 10.568C7.056 10.376 7.216 10.1147 7.216 9.784C7.216 9.54933 7.13067 9.35733 6.96 9.208C6.78933 9.048 6.512 8.90933 6.128 8.792C5.75467 8.664 5.25333 8.536 4.624 8.408C3.81333 8.23733 3.12 8.01867 2.544 7.752C1.97867 7.47467 1.54667 7.11733 1.248 6.68C0.949333 6.232 0.8 5.67733 0.8 5.016C0.8 4.16267 1.104 3.43733 1.712 2.84C2.33067 2.24267 3.17867 1.86933 4.256 1.72V0.599999C4.256 0.482666 4.29333 0.386666 4.368 0.311999C4.44267 0.237333 4.53867 0.2 4.656 0.2H5.984C6.09067 0.2 6.18133 0.237333 6.256 0.311999C6.34133 0.386666 6.384 0.482666 6.384 0.599999V1.752C7.12 1.88 7.73867 2.10933 8.24 2.44C8.74133 2.77067 9.12 3.144 9.376 3.56C9.64267 3.976 9.78133 4.376 9.792 4.76C9.792 4.84533 9.76 4.92533 9.696 5C9.632 5.064 9.552 5.096 9.456 5.096H7.344C7.22667 5.096 7.12533 5.07467 7.04 5.032C6.95467 4.98933 6.88 4.92 6.816 4.824C6.752 4.58933 6.58133 4.38667 6.304 4.216C6.02667 4.03467 5.66933 3.944 5.232 3.944C4.77333 3.944 4.41067 4.02933 4.144 4.2C3.87733 4.36 3.744 4.61067 3.744 4.952C3.744 5.16533 3.81333 5.352 3.952 5.512C4.10133 5.672 4.34667 5.81067 4.688 5.928C5.02933 6.04533 5.49333 6.168 6.08 6.296C7.05067 6.47733 7.83467 6.70667 8.432 6.984C9.02933 7.25067 9.46667 7.60267 9.744 8.04C10.0213 8.46667 10.16 9.00533 10.16 9.656C10.16 10.2853 10 10.84 9.68 11.32C9.37067 11.8 8.93333 12.1893 8.368 12.488C7.80267 12.7867 7.14133 12.984 6.384 13.08V14.2C6.384 14.3173 6.34133 14.4133 6.256 14.488C6.18133 14.5627 6.09067 14.6 5.984 14.6H4.656Z" fill="#2959CE"/>
<path d="M19.0254 13C18.9187 13 18.828 12.968 18.7534 12.904C18.6894 12.8293 18.6574 12.7387 18.6574 12.632V3.672L16.0014 5.72C15.916 5.784 15.8254 5.81067 15.7294 5.8C15.6334 5.78933 15.5534 5.74133 15.4894 5.656L15.0734 5.128C15.0094 5.032 14.9827 4.936 14.9934 4.84C15.0147 4.744 15.068 4.664 15.1534 4.6L18.6414 1.912C18.716 1.85867 18.7854 1.82667 18.8494 1.816C18.9134 1.80533 18.9827 1.8 19.0574 1.8H19.8734C19.98 1.8 20.0654 1.83733 20.1294 1.912C20.1934 1.976 20.2254 2.06133 20.2254 2.168V12.632C20.2254 12.7387 20.1934 12.8293 20.1294 12.904C20.0654 12.968 19.98 13 19.8734 13H19.0254ZM26.5251 13.16C25.7891 13.16 25.1651 13.048 24.6531 12.824C24.1518 12.5893 23.7411 12.2693 23.4211 11.864C23.1011 11.4587 22.8665 10.9947 22.7171 10.472C22.5785 9.94933 22.4985 9.39467 22.4771 8.808C22.4665 8.52 22.4558 8.216 22.4451 7.896C22.4451 7.576 22.4451 7.256 22.4451 6.936C22.4558 6.60533 22.4665 6.29067 22.4771 5.992C22.4878 5.40533 22.5678 4.85067 22.7171 4.328C22.8771 3.79467 23.1118 3.33067 23.4211 2.936C23.7411 2.53067 24.1571 2.216 24.6691 1.992C25.1811 1.75733 25.7998 1.64 26.5251 1.64C27.2611 1.64 27.8798 1.75733 28.3811 1.992C28.8931 2.216 29.3091 2.53067 29.6291 2.936C29.9491 3.33067 30.1838 3.79467 30.3331 4.328C30.4931 4.85067 30.5785 5.40533 30.5891 5.992C30.5998 6.29067 30.6051 6.60533 30.6051 6.936C30.6158 7.256 30.6158 7.576 30.6051 7.896C30.6051 8.216 30.5998 8.52 30.5891 8.808C30.5785 9.39467 30.4931 9.94933 30.3331 10.472C30.1838 10.9947 29.9491 11.4587 29.6291 11.864C29.3198 12.2693 28.9091 12.5893 28.3971 12.824C27.8958 13.048 27.2718 13.16 26.5251 13.16ZM26.5251 11.8C27.3571 11.8 27.9705 11.528 28.3651 10.984C28.7705 10.4293 28.9785 9.67733 28.9891 8.728C29.0105 8.41867 29.0211 8.12 29.0211 7.832C29.0211 7.53333 29.0211 7.24 29.0211 6.952C29.0211 6.65333 29.0105 6.36 28.9891 6.072C28.9785 5.144 28.7705 4.40267 28.3651 3.848C27.9705 3.28267 27.3571 3 26.5251 3C25.7038 3 25.0905 3.28267 24.6851 3.848C24.2905 4.40267 24.0825 5.144 24.0611 6.072C24.0611 6.36 24.0558 6.65333 24.0451 6.952C24.0451 7.24 24.0451 7.53333 24.0451 7.832C24.0558 8.12 24.0611 8.41867 24.0611 8.728C24.0825 9.67733 24.2958 10.4293 24.7011 10.984C25.1065 11.528 25.7145 11.8 26.5251 11.8ZM36.0254 13C35.9187 13 35.828 12.968 35.7534 12.904C35.6894 12.8293 35.6574 12.7387 35.6574 12.632V3.672L33.0014 5.72C32.916 5.784 32.8254 5.81067 32.7294 5.8C32.6334 5.78933 32.5534 5.74133 32.4894 5.656L32.0734 5.128C32.0094 5.032 31.9827 4.936 31.9934 4.84C32.0147 4.744 32.068 4.664 32.1534 4.6L35.6414 1.912C35.716 1.85867 35.7854 1.82667 35.8494 1.816C35.9134 1.80533 35.9827 1.8 36.0574 1.8H36.8734C36.98 1.8 37.0654 1.83733 37.1294 1.912C37.1934 1.976 37.2254 2.06133 37.2254 2.168V12.632C37.2254 12.7387 37.1934 12.8293 37.1294 12.904C37.0654 12.968 36.98 13 36.8734 13H36.0254ZM43.2211 13.16C42.5491 13.16 41.9625 13.08 41.4611 12.92C40.9598 12.7493 40.5385 12.5253 40.1971 12.248C39.8558 11.9707 39.5945 11.6667 39.4131 11.336C39.2425 11.0053 39.1518 10.664 39.1411 10.312C39.1411 10.216 39.1731 10.1413 39.2371 10.088C39.3011 10.0347 39.3811 10.008 39.4771 10.008H40.2611C40.3571 10.008 40.4425 10.0293 40.5171 10.072C40.5918 10.1147 40.6558 10.2053 40.7091 10.344C40.8158 10.728 40.9971 11.0267 41.2531 11.24C41.5198 11.4533 41.8238 11.6027 42.1651 11.688C42.5171 11.7627 42.8691 11.8 43.2211 11.8C43.9571 11.8 44.5545 11.624 45.0131 11.272C45.4718 10.92 45.7011 10.4027 45.7011 9.72C45.7011 9.02667 45.4931 8.53067 45.0771 8.232C44.6611 7.93333 44.0851 7.784 43.3491 7.784H41.8291C41.7225 7.784 41.6318 7.752 41.5571 7.688C41.4931 7.624 41.4611 7.53333 41.4611 7.416V6.984C41.4611 6.888 41.4771 6.808 41.5091 6.744C41.5518 6.66933 41.5945 6.60533 41.6371 6.552L44.7411 3.16H40.0211C39.9145 3.16 39.8238 3.128 39.7491 3.064C39.6851 3 39.6531 2.90933 39.6531 2.792V2.184C39.6531 2.06667 39.6851 1.976 39.7491 1.912C39.8238 1.83733 39.9145 1.8 40.0211 1.8H46.4051C46.5225 1.8 46.6131 1.83733 46.6771 1.912C46.7518 1.976 46.7891 2.06667 46.7891 2.184V2.76C46.7891 2.83467 46.7678 2.904 46.7251 2.968C46.6931 3.02133 46.6558 3.07467 46.6131 3.128L43.5251 6.568L43.7811 6.584C44.4851 6.60533 45.0985 6.73333 45.6211 6.968C46.1545 7.20267 46.5651 7.55467 46.8531 8.024C47.1518 8.48267 47.3011 9.064 47.3011 9.768C47.3011 10.4827 47.1251 11.096 46.7731 11.608C46.4211 12.1093 45.9358 12.4933 45.3171 12.76C44.6985 13.0267 43.9998 13.16 43.2211 13.16ZM50.4465 13C50.3505 13 50.2705 12.968 50.2065 12.904C50.1532 12.8293 50.1265 12.744 50.1265 12.648C50.1265 12.616 50.1372 12.568 50.1585 12.504L54.1425 3.192H48.8945C48.7878 3.192 48.6972 3.16 48.6225 3.096C48.5585 3.02133 48.5265 2.93067 48.5265 2.824V2.184C48.5265 2.06667 48.5585 1.976 48.6225 1.912C48.6972 1.83733 48.7878 1.8 48.8945 1.8H55.4545C55.5718 1.8 55.6625 1.83733 55.7265 1.912C55.8012 1.976 55.8385 2.06667 55.8385 2.184V2.776C55.8385 2.91467 55.8278 3.02667 55.8065 3.112C55.7852 3.19733 55.7532 3.29333 55.7105 3.4L51.7585 12.6C51.7265 12.6853 51.6732 12.776 51.5985 12.872C51.5345 12.9573 51.4385 13 51.3105 13H50.4465ZM56.6588 13C56.5521 13 56.4614 12.968 56.3868 12.904C56.3228 12.8293 56.2908 12.7387 56.2908 12.632V11.48C56.2908 11.3733 56.3228 11.288 56.3868 11.224C56.4614 11.1493 56.5521 11.112 56.6588 11.112H57.8108C57.9174 11.112 58.0028 11.1493 58.0668 11.224C58.1414 11.288 58.1788 11.3733 58.1788 11.48V12.632C58.1788 12.7387 58.1414 12.8293 58.0668 12.904C58.0028 12.968 57.9174 13 57.8108 13H56.6588ZM60.402 13C60.2953 13 60.2047 12.968 60.13 12.904C60.066 12.8293 60.034 12.7387 60.034 12.632V12.12C60.034 12.024 60.0607 11.9173 60.114 11.8C60.1673 11.6827 60.274 11.5547 60.434 11.416L63.826 8.024C64.37 7.56533 64.7967 7.176 65.106 6.856C65.426 6.52533 65.65 6.21067 65.778 5.912C65.9167 5.61333 65.986 5.304 65.986 4.984C65.986 4.376 65.8153 3.896 65.474 3.544C65.1327 3.18133 64.626 3 63.954 3C63.5273 3 63.1593 3.09067 62.85 3.272C62.5407 3.44267 62.2953 3.68267 62.114 3.992C61.9433 4.29067 61.8313 4.632 61.778 5.016C61.7567 5.15467 61.698 5.25067 61.602 5.304C61.5167 5.35733 61.4367 5.384 61.362 5.384H60.53C60.434 5.384 60.354 5.35733 60.29 5.304C60.226 5.24 60.194 5.16533 60.194 5.08C60.2047 4.67467 60.29 4.26933 60.45 3.864C60.61 3.448 60.8447 3.07467 61.154 2.744C61.474 2.41333 61.8633 2.14667 62.322 1.944C62.7913 1.73067 63.3353 1.624 63.954 1.624C64.7967 1.624 65.4847 1.77867 66.018 2.088C66.562 2.38667 66.962 2.78667 67.218 3.288C67.474 3.78933 67.602 4.33867 67.602 4.936C67.602 5.40533 67.522 5.83733 67.362 6.232C67.202 6.616 66.9673 6.99467 66.658 7.368C66.3593 7.73067 65.986 8.104 65.538 8.488L62.466 11.608H67.458C67.5753 11.608 67.666 11.64 67.73 11.704C67.8047 11.768 67.842 11.8587 67.842 11.976V12.632C67.842 12.7387 67.8047 12.8293 67.73 12.904C67.666 12.968 67.5753 13 67.458 13H60.402Z" fill="#555555"/>
</svg>
